<?xml version="1.0" standalone="no"?><!DOCTYPE svg PUBLIC "-//W3C//DTD SVG 1.1//EN" "http://www.w3.org/Graphics/SVG/1.1/DTD/svg11.dtd"><svg class="icon" width="200px" height="200.00px" viewBox="0 0 1024 1024" version="1.1" xmlns="http://www.w3.org/2000/svg"><path d="M376.12 68.62a32 32 0 0 0-7.69 0.94c-268 66.2-449.08 355.29-332.31 659.05a453.08 453.08 0 0 0 259.2 259.24c64.4 24.77 128.15 36.15 189.24 36.15 227.12 0 417.71-157.21 469.88-368.43a32 32 0 0 0-31-39.62h-8.79c-14.33 0-29.52 11.22-33.08 25.11-45.33 177-206 308.39-397 308.39-52.56 0-107.38-9.94-162.76-31.61a382 382 0 0 1-215.67-215.69C7 448.8 153.41 206.42 374.45 144.71a45.83 45.83 0 0 0 33.6-44.14 32 32 0 0 0-31.93-31.95z"  /><path d="M551.4 68.24c223 0 404.36 181.4 404.36 404.36a5.1 5.1 0 0 1-5.09 5.09H564A17.69 17.69 0 0 1 546.31 460V73.33a5.1 5.1 0 0 1 5.09-5.09m0-68.24a73.33 73.33 0 0 0-73.33 73.33V460A85.91 85.91 0 0 0 564 545.93h386.67A73.33 73.33 0 0 0 1024 472.6C1024 211.59 812.41 0 551.4 0z"  /></svg>