<?xml version="1.0" standalone="no"?><!DOCTYPE svg PUBLIC "-//W3C//DTD SVG 1.1//EN" "http://www.w3.org/Graphics/SVG/1.1/DTD/svg11.dtd"><svg class="icon" width="200px" height="200.00px" viewBox="0 0 1024 1024" version="1.1" xmlns="http://www.w3.org/2000/svg"><path d="M128 409.6c13.9 0 25.6 11.7 25.6 25.6v358.4c0 13.9-11.7 25.6-25.6 25.6s-25.6-11.7-25.6-25.6V435.2c0-13.9 11.7-25.6 25.6-25.6m0-76.8c-56.3 0-102.4 46.1-102.4 102.4v358.4C25.6 849.9 71.7 896 128 896s102.4-46.1 102.4-102.4V435.2c0-56.3-46.1-102.4-102.4-102.4zM512 76.8c13.9 0 25.6 11.7 25.6 25.6v691.2c0 13.9-11.7 25.6-25.6 25.6-13.9 0-25.6-11.7-25.6-25.6V102.4c0-13.9 11.7-25.6 25.6-25.6M512 0c-56.3 0-102.4 46.1-102.4 102.4v691.2c0 56.3 46.1 102.4 102.4 102.4s102.4-46.1 102.4-102.4V102.4C614.4 46.1 568.3 0 512 0zM896 204.8c13.9 0 25.6 11.7 25.6 25.6v563.2c0 13.9-11.7 25.6-25.6 25.6s-25.6-11.7-25.6-25.6V230.4c0-13.9 11.7-25.6 25.6-25.6m0-76.8c-56.3 0-102.4 46.1-102.4 102.4v563.2c0 56.3 46.1 102.4 102.4 102.4s102.4-46.1 102.4-102.4V230.4c0-56.3-46.1-102.4-102.4-102.4zM985.6 1024H38.4C17.2 1024 0 1006.8 0 985.6s17.2-38.4 38.4-38.4h947.2c21.2 0 38.4 17.2 38.4 38.4s-17.2 38.4-38.4 38.4z" /></svg>