<?xml version="1.0" standalone="no"?><!DOCTYPE svg PUBLIC "-//W3C//DTD SVG 1.1//EN" "http://www.w3.org/Graphics/SVG/1.1/DTD/svg11.dtd"><svg class="icon" width="200px" height="200.00px" viewBox="0 0 1024 1024" version="1.1" xmlns="http://www.w3.org/2000/svg"><path d="M509.2 476.8c38.3 0 69.3-30.7 69.3-68.4 0-37.8-31-68.4-69.3-68.4s-69.3 30.6-69.3 68.4c0 37.7 31 68.4 69.3 68.4zM474.2 1024h75.7c21.5 0 38.3-18.4 36.4-39.8l-37.8-416.1c-1.7-18.8-17.5-33.2-36.4-33.2s-34.7 14.4-36.4 33.2l-37.8 416.1c-2 21.4 14.8 39.8 36.3 39.8zM800.5 539.1c-57.7-41.7-117.3-80.8-178.6-117-2.7-1.6-5.9-1.7-8.7-0.4-2.8 1.2-4.8 3.8-5.3 6.8-4 23.7-16.8 45-35.7 59.7-2.4 1.9-3.7 4.9-3.5 7.9 0.2 3 2 5.8 4.7 7.4 119.1 64.7 259.7 133.9 300 134.9 4.4-0.1 10.4-0.7 14.7-6.7 1.2-2.1 1.8-4.5 1.9-7-3.6-22.1-38.4-46.3-89.5-85.6zM475.3 321.6c-2.9 1-6.1 0.6-8.6-1.1-2.5-1.8-4-4.6-4-7.7C464.6 201.7 474 86 487.5 33.2c5.3-15.1 5.8-27.1 18-32.2 3.2-1.3 7-1.3 10.2 0 12.3 5.1 12.7 17 18 32.2 4.6 17.7 8.6 42.1 12 71.3 6.9 58 11.6 134.3 12.7 208.3 0 3-1.4 5.9-4 7.7-1.5 1.1-3.4 1.8-5.3 1.7-1.1 0-2.3-0.2-3.3-0.6-11.3-4.3-23.2-6.6-35.2-6.7-12.4 0-24.1 2.6-35.3 6.7zM450.1 494.5c-0.3 3.1-2.1 5.8-4.8 7.3C327 566.1 191.7 629 151.3 629.9c-4.7-0.1-10.9-0.3-15.3-6.8-1.3-2.1-2-4.5-2-7 3.6-22.3 37.4-45.1 87.5-82.7 49.8-35.6 115-77.6 177.5-114.3 2.6-1.6 5.9-1.8 8.7-0.5 2.8 1.3 4.7 4 5.2 7 3.4 23.8 15.5 45.4 33.9 60.8 2.3 2.1 3.6 5.1 3.3 8.1z" /></svg>