<?xml version="1.0" standalone="no"?><!DOCTYPE svg PUBLIC "-//W3C//DTD SVG 1.1//EN" "http://www.w3.org/Graphics/SVG/1.1/DTD/svg11.dtd"><svg class="icon" width="200px" height="200.00px" viewBox="0 0 1024 1024" version="1.1" xmlns="http://www.w3.org/2000/svg"><path d="M358.4 76.8c14.1 0 25.6 11.5 25.6 25.6v256c0 14.1-11.5 25.6-25.6 25.6h-256c-14.1 0-25.6-11.5-25.6-25.6v-256c0-14.1 11.5-25.6 25.6-25.6h256m0-76.8h-256C45.8 0 0 45.8 0 102.4v256C0 415 45.8 460.8 102.4 460.8h256c56.6 0 102.4-45.8 102.4-102.4v-256C460.8 45.8 415 0 358.4 0zM921.6 76.8c14.1 0 25.6 11.5 25.6 25.6v256c0 14.1-11.5 25.6-25.6 25.6h-256c-14.1 0-25.6-11.5-25.6-25.6v-256c0-14.1 11.5-25.6 25.6-25.6h256m0-76.8h-256C609 0 563.2 45.8 563.2 102.4v256c0 56.6 45.8 102.4 102.4 102.4h256c56.6 0 102.4-45.8 102.4-102.4v-256C1024 45.8 978.2 0 921.6 0zM921.6 640c14.1 0 25.6 11.5 25.6 25.6v256c0 14.1-11.5 25.6-25.6 25.6h-256c-14.1 0-25.6-11.5-25.6-25.6v-256c0-14.1 11.5-25.6 25.6-25.6h256m0-76.8h-256c-56.6 0-102.4 45.8-102.4 102.4v256c0 56.6 45.8 102.4 102.4 102.4h256c56.6 0 102.4-45.8 102.4-102.4v-256c0-56.6-45.8-102.4-102.4-102.4zM358.4 640c14.1 0 25.6 11.5 25.6 25.6v256c0 14.1-11.5 25.6-25.6 25.6h-256c-14.1 0-25.6-11.5-25.6-25.6v-256c0-14.1 11.5-25.6 25.6-25.6h256m0-76.8h-256C45.8 563.2 0 609 0 665.6v256C0 978.2 45.8 1024 102.4 1024h256c56.6 0 102.4-45.8 102.4-102.4v-256c0-56.6-45.8-102.4-102.4-102.4z" /></svg>