<?xml version="1.0" standalone="no"?><!DOCTYPE svg PUBLIC "-//W3C//DTD SVG 1.1//EN" "http://www.w3.org/Graphics/SVG/1.1/DTD/svg11.dtd"><svg class="icon" width="200px" height="200.00px" viewBox="0 0 1024 1024" version="1.1" xmlns="http://www.w3.org/2000/svg"><path d="M508.9 538.9c43.2 0 78.3-34.6 78.3-77.2 0-42.7-35-77.2-78.3-77.2s-78.3 34.6-78.3 77.2c0 42.5 35 77.2 78.3 77.2z m-33.2 56.3L427.4 1024h161.3l-48.5-428.8h-64.5z m362 14C772.5 562 705.3 518 636.1 477.1c-3-1.8-6.7-1.9-9.9-0.4-3.2 1.4-5.4 4.3-5.9 7.7a108.1 108.1 0 0 1-40.3 67.4c-2.7 2.1-4.2 5.5-4 9 0.3 3.4 2.3 6.5 5.3 8.4 134.4 73 293.2 151.2 338.7 152.3 5-0.1 11.7-0.8 16.6-7.6 1.4-2.4 2.1-5.1 2.1-7.9-4.1-25.1-43.4-52.5-101-96.8zM470.6 363.7c-3.2 1.2-6.8 0.7-9.7-1.3-2.8-2-4.5-5.2-4.5-8.6 2-125.5 12.7-256 27.9-315.7C491 18.9 490.9 4.2 510.4 0c19.6 4.3 19.4 18.9 26.1 38.1 5.2 20 9.7 47.6 13.5 80.5 7.8 65.5 13.1 151.6 14.4 235.1 0 3.4-1.6 6.7-4.5 8.7-1.7 1.3-3.8 2-6 2-1.3 0-2.6-0.2-3.8-0.7-12.7-4.9-26.2-7.4-39.8-7.6-13.8 0-27.1 2.9-39.7 7.6z m-28.5 195.2c-0.4 3.5-2.4 6.5-5.5 8.2-133.5 72.5-286.2 143.5-331.8 144.6-5.3-0.1-12.3-0.3-17.3-7.7-1.5-2.4-2.3-5.1-2.2-7.9 4.1-25.2 42.2-50.9 98.8-93.3 56.2-40.2 129.8-87.6 200.3-129 3-1.8 6.7-2 9.8-0.5 3.2 1.5 5.3 4.5 5.8 7.9 3.8 26.8 17.5 51.3 38.3 68.6 2.7 2.2 4.2 5.7 3.8 9.1z m0 0" /></svg>