<?xml version="1.0" standalone="no"?><!DOCTYPE svg PUBLIC "-//W3C//DTD SVG 1.1//EN" "http://www.w3.org/Graphics/SVG/1.1/DTD/svg11.dtd"><svg class="icon" width="200px" height="200.00px" viewBox="0 0 1024 1024" version="1.1" xmlns="http://www.w3.org/2000/svg"><path d="M512.0062 68.2l423.1 377H801.4062v485.2c-4.3 8.6-18.2 22.5-26.9 26.8H667.8062V736.8c0-70.9-58.2-126.5-132.5-126.5h-42.1c-75.6 0-137.1 56.8-137.1 126.5v220.4H249.5062c-8.7-4.3-22.6-18.2-26.9-26.8V445.2H88.9062L512.0062 68.2M512.0062 0c-14.6 0-29.3 5.1-41.1 15.4L28.5062 409.6C-15.9938 448.3-8.1938 512 50.5062 512h105.3v423c0 35.3 54.1 89 89 89h155.7c12.3 0 22.3-11.5 22.3-25.7V736.8c0-35.2 35.5-59.7 70.3-59.7h42.1c34.8 0 65.7 24.5 65.7 59.7v261.5c0 14.2 10 25.6 22.3 25.6H779.0062c34.9 0 89-53.7 89-89V512h105.3c58.7 0 66.5-63.7 22-102.4L553.1062 15.4C541.3062 5.1 526.6062 0 512.0062 0z" /></svg>