<?xml version="1.0" standalone="no"?><!DOCTYPE svg PUBLIC "-//W3C//DTD SVG 1.1//EN" "http://www.w3.org/Graphics/SVG/1.1/DTD/svg11.dtd"><svg class="icon" width="200px" height="200.00px" viewBox="0 0 1024 1024" version="1.1" xmlns="http://www.w3.org/2000/svg"><path d="M512.009325 69.798729c260.495256 0 469.091456 226.395877 439.391998 492.691026C928.801734 764.986067 765.104716 928.683086 562.608404 951.282674 296.213255 981.082132 69.817379 772.485931 69.817379 511.990675 69.817379 268.195115 268.213765 69.798729 512.009325 69.798729M512.009325 0C218.414672 0-17.481031 247.0955 1.018632 544.69008c15.799712 254.995356 223.295933 462.491577 478.291289 478.291289 297.59458 18.499663 544.69008-217.396041 544.690079-510.990694C1024 229.195826 794.804175 0 512.009325 0z"  /><path d="M523.609114 383.993006c-19.299648 0-34.899364-15.599716-34.899364-34.899364v-69.798729c0-19.299648 15.599716-34.899364 34.899364-34.899364 19.299648 0 34.899364 15.599716 34.899364 34.899364v69.798729c0 19.299648-15.599716 34.899364-34.899364 34.899364zM523.609114 814.485166c-19.299648 0-34.899364-15.599716-34.899364-34.899365V477.091311c0-19.299648 15.599716-34.899364 34.899364-34.899365 19.299648 0 34.899364 15.599716 34.899364 34.899365v302.49449c0 19.299648-15.599716 34.899364-34.899364 34.899365z"  /></svg>