<?xml version="1.0" standalone="no"?><!DOCTYPE svg PUBLIC "-//W3C//DTD SVG 1.1//EN" "http://www.w3.org/Graphics/SVG/1.1/DTD/svg11.dtd"><svg class="icon" width="200px" height="200.00px" viewBox="0 0 1024 1024" version="1.1" xmlns="http://www.w3.org/2000/svg"><path d="M89 200.3H44.5C20 200.3 0 180.3 0 155.8s20-44.5 44.5-44.5H89c24.5 0 44.5 20 44.5 44.5 0.1 24.5-20 44.5-44.5 44.5zM979.5 200.3H356.2c-24.5 0-44.5-20-44.5-44.5s20-44.5 44.5-44.5h623.3c24.5 0 44.5 20 44.5 44.5s-20 44.5-44.5 44.5zM89 556.5H44.5C20 556.5 0 536.5 0 512s20-44.5 44.5-44.5H89c24.5 0 44.5 20 44.5 44.5 0.1 24.5-20 44.5-44.5 44.5zM979.5 556.5H356.2c-24.5 0-44.5-20-44.5-44.5s20-44.5 44.5-44.5h623.3c24.5 0 44.5 20 44.5 44.5s-20 44.5-44.5 44.5z"  /><path d="M89 912.7H44.5C20 912.7 0 892.7 0 868.2s20-44.5 44.5-44.5H89c24.5 0 44.5 20 44.5 44.5 0.1 24.5-20 44.5-44.5 44.5zM979.5 912.7H356.2c-24.5 0-44.5-20-44.5-44.5s20-44.5 44.5-44.5h623.3c24.5 0 44.5 20 44.5 44.5s-20 44.5-44.5 44.5z"  /></svg>