<?xml version="1.0" standalone="no"?><!DOCTYPE svg PUBLIC "-//W3C//DTD SVG 1.1//EN" "http://www.w3.org/Graphics/SVG/1.1/DTD/svg11.dtd"><svg class="icon" width="200px" height="200.00px" viewBox="0 0 1024 1024" version="1.1" xmlns="http://www.w3.org/2000/svg"><path d="M512 66.8c122.7 0 222.6 99.9 222.6 222.6S634.7 512 512 512s-222.6-99.9-222.6-222.6S389.3 66.8 512 66.8M512 0C352.2 0 222.6 129.6 222.6 289.4S352.2 578.8 512 578.8s289.4-129.6 289.4-289.4S671.8 0 512 0z"  /><path d="M512 578.8c152.1 0 285.2 164.9 308.1 378.4H203.9c22.9-213.5 156-378.4 308.1-378.4m0-66.8c-195.2 0-356 200-376.3 456.9-2.3 29.7 18.6 55.1 44.6 55.1h663.5c25.9 0 46.9-25.4 44.5-55C868 712.1 707.3 512 512 512z"  /></svg>