<?xml version="1.0" standalone="no"?><!DOCTYPE svg PUBLIC "-//W3C//DTD SVG 1.1//EN" "http://www.w3.org/Graphics/SVG/1.1/DTD/svg11.dtd"><svg class="icon" width="200px" height="200.00px" viewBox="0 0 1024 1024" version="1.1" xmlns="http://www.w3.org/2000/svg"><path d="M756.9 445.2c36.8 0 66.8 30 66.8 66.8v378.4c0 36.8-30 66.8-66.8 66.8H267.1c-36.8 0-66.8-30-66.8-66.8V512c0-36.8 30-66.8 66.8-66.8h489.8m0-66.8H267.1c-73.8 0-133.6 59.8-133.6 133.6v378.4c0 73.8 59.8 133.6 133.6 133.6h489.7c73.8 0 133.6-59.8 133.6-133.6V512c0-73.8-59.8-133.6-133.5-133.6z"  /><path d="M534.3 66.8c85.9 0 155.8 69.9 155.8 155.8v155.8H333.9V222.6c0-85.9 69.9-155.8 155.8-155.8h44.6m0-66.8h-44.5c-123 0-222.7 99.7-222.7 222.6v222.6h489.7V222.6C756.9 99.7 657.2 0 534.3 0zM523.1 556.5c-18.4 0-33.4 14.9-33.4 33.4v200.3c0 18.4 14.9 33.4 33.4 33.4 18.4 0 33.4-14.9 33.4-33.4V589.9c0-18.4-14.9-33.4-33.4-33.4z"  /></svg>