<?xml version="1.0" standalone="no"?><!DOCTYPE svg PUBLIC "-//W3C//DTD SVG 1.1//EN" "http://www.w3.org/Graphics/SVG/1.1/DTD/svg11.dtd"><svg class="icon" width="200px" height="200.00px" viewBox="0 0 1024 1024" version="1.1" xmlns="http://www.w3.org/2000/svg"><path d="M323.9 127.8H32c-17.6 0-32 14.4-32 32s14.4 32 32 32h291.9c17.6 0 32-14.4 32-32s-14.4-32-32-32zM323.9 484.8H32c-17.6 0-32 14.4-32 32s14.4 32 32 32h291.9c17.6 0 32-14.4 32-32s-14.4-32-32-32zM323.9 831.7H32c-17.6 0-32 14.4-32 32s14.4 32 32 32h291.9c17.6 0 32-14.4 32-32s-14.4-32-32-32zM1015.4 584.6c-11.7-11.8-30.8-11.8-42.5-1L768.2 789.5V160c0-17.6-14.4-32-32-32s-32 14.4-32 32v630.4L499.5 584.6c-11.7-11.8-30.8-11.8-42.5 0-11.8 11.9-11.8 30.9 0 42.7l252.7 254.1c4.7 6.9 11.9 11.9 20.4 13.6 4.6 1 9.4 0.8 13.9-0.4 0.3-0.1 0.5-0.1 0.8-0.2h0.1c7.2-2 13.4-6.6 17.6-12.6l252.9-254.5c11.8-11.9 11.8-30.9 0-42.7z" /></svg>